<svg width="145" height="37" fill="none" xmlns="http://www.w3.org/2000/svg"><path d="M27 0v36h-7v-3c-2 2-4 3-8 3-6 0-12-5-12-13 0-7 6-13 12-13 4 0 6 1 8 3V0h7Zm-7 23c0-4-3-6-6-6-4 0-6 2-6 6s2 6 6 6c3 0 6-2 6-6ZM44 30l5-2 6 3c-3 4-7 5-11 5-9 0-14-5-14-13 0-7 5-13 13-13 7 0 13 5 13 13v3H38c1 3 3 4 6 4Zm4-10c0-2-3-4-5-4-3 0-5 2-6 4h11ZM82 10l-9 26h-9l-9-26h8l6 16 5-16h8ZM83 10h8v26h-8V10ZM94 23c0-7 5-13 13-13 5 0 9 2 11 6l-6 4c-1-2-3-3-5-3-3 0-6 3-6 6 0 4 3 6 6 6 2 0 4-1 5-3l6 4c-2 4-6 6-11 6-8 0-13-5-13-13ZM133 30l5-2 6 3c-3 4-6 5-11 5-9 0-14-5-14-13 0-7 5-13 13-13s13 5 13 13v3h-18c1 3 3 4 6 4Zm5-10c-1-2-4-4-6-4-3 0-5 2-5 4h11Z" fill="#000"/><path d="M83 0v10l8-10h-8Z" fill="#510094"/></svg>